<svg width="18" height="18" viewBox="0 0 18 18" fill="none" xmlns="http://www.w3.org/2000/svg">
<path d="M6.01949 1.75098C6.3548 1.75098 6.66376 1.93285 6.82654 2.22602L7.95565 4.25993C8.10348 4.52624 8.11045 4.84835 7.9742 5.12079L6.88645 7.2963C6.88645 7.2963 7.20168 8.91699 8.52094 10.2363C9.84025 11.5555 11.4554 11.8653 11.4554 11.8653L13.6306 10.7777C13.9033 10.6414 14.2256 10.6485 14.492 10.7966L16.5317 11.9306C16.8246 12.0934 17.0062 12.4022 17.0062 12.7373V15.0789C17.0062 16.2714 15.8986 17.1327 14.7687 16.7514C12.4481 15.9684 8.84596 14.4776 6.56282 12.1944C4.27963 9.91124 2.78877 6.30907 2.00577 3.9885C1.62452 2.85861 2.48579 1.75098 3.67825 1.75098H6.01949Z" stroke="#333333" stroke-width="1.84615" stroke-linejoin="round"/>
</svg>
