<svg width="45" height="45" viewBox="0 0 45 45" fill="none" xmlns="http://www.w3.org/2000/svg">
<path d="M36.3023 31.875C37.7011 32.7301 38.4375 33.7001 38.4375 34.6875C38.4375 35.6749 37.7011 36.6449 36.3023 37.5C34.9035 38.3551 32.8916 39.0652 30.4688 39.5589C28.0459 40.0526 25.2976 40.3125 22.5 40.3125C19.7024 40.3125 16.9541 40.0526 14.5313 39.5589C12.1084 39.0652 10.0965 38.3551 8.69772 37.5C7.29891 36.6449 6.5625 35.6749 6.5625 34.6875C6.5625 33.7001 7.29891 32.7301 8.69772 31.875" stroke="#FFEA00" stroke-width="2" stroke-linecap="round"/>
<path d="M36.5625 18.75C36.5625 28.6062 25.2697 35.1018 22.9237 36.3449C22.6533 36.4882 22.3467 36.4882 22.0763 36.3449C19.7303 35.1018 8.4375 28.6062 8.4375 18.75C8.4375 10.3125 15.2513 4.6875 22.5 4.6875C30 4.6875 36.5625 10.3125 36.5625 18.75Z" stroke="#FFEA00" stroke-width="2"/>
<circle cx="22.5" cy="18.75" r="6.5" stroke="#FFEA00" stroke-width="2"/>
</svg>
